<svg version="1.1" xmlns="http://www.w3.org/2000/svg" xmlns:xlink="http://www.w3.org/1999/xlink" width="534.919921875" height="608"><defs/><g><text fill="#eeeeee" stroke="none" font-family="Arial" font-size="24px" font-style="normal" font-weight="normal" text-decoration="none" x="0" y="0">UNREGISTERED</text><text fill="#eeeeee" stroke="none" font-family="Arial" font-size="24px" font-style="normal" font-weight="normal" text-decoration="none" x="0" y="30">UNREGISTERED</text><text fill="#eeeeee" stroke="none" font-family="Arial" font-size="24px" font-style="normal" font-weight="normal" text-decoration="none" x="0" y="60">UNREGISTERED</text><text fill="#eeeeee" stroke="none" font-family="Arial" font-size="24px" font-style="normal" font-weight="normal" text-decoration="none" x="0" y="90">UNREGISTERED</text><text fill="#eeeeee" stroke="none" font-family="Arial" font-size="24px" font-style="normal" font-weight="normal" text-decoration="none" x="0" y="120">UNREGISTERED</text><text fill="#eeeeee" stroke="none" font-family="Arial" font-size="24px" font-style="normal" font-weight="normal" text-decoration="none" x="0" y="150">UNREGISTERED</text><text fill="#eeeeee" stroke="none" font-family="Arial" font-size="24px" font-style="normal" font-weight="normal" text-decoration="none" x="0" y="180">UNREGISTERED</text><text fill="#eeeeee" stroke="none" font-family="Arial" font-size="24px" font-style="normal" font-weight="normal" text-decoration="none" x="0" y="210">UNREGISTERED</text><text fill="#eeeeee" stroke="none" font-family="Arial" font-size="24px" font-style="normal" font-weight="normal" text-decoration="none" x="0" y="240">UNREGISTERED</text><text fill="#eeeeee" stroke="none" font-family="Arial" font-size="24px" font-style="normal" font-weight="normal" text-decoration="none" x="0" y="270">UNREGISTERED</text><text fill="#eeeeee" stroke="none" font-family="Arial" font-size="24px" font-style="normal" font-weight="normal" text-decoration="none" x="0" y="300">UNREGISTERED</text><text fill="#eeeeee" stroke="none" font-family="Arial" font-size="24px" font-style="normal" font-weight="normal" text-decoration="none" x="0" y="330">UNREGISTERED</text><text fill="#eeeeee" stroke="none" font-family="Arial" font-size="24px" font-style="normal" font-weight="normal" text-decoration="none" x="0" y="360">UNREGISTERED</text><text fill="#eeeeee" stroke="none" font-family="Arial" font-size="24px" font-style="normal" font-weight="normal" text-decoration="none" x="0" y="390">UNREGISTERED</text><text fill="#eeeeee" stroke="none" font-family="Arial" font-size="24px" font-style="normal" font-weight="normal" text-decoration="none" x="0" y="420">UNREGISTERED</text><text fill="#eeeeee" stroke="none" font-family="Arial" font-size="24px" font-style="normal" font-weight="normal" text-decoration="none" x="0" y="450">UNREGISTERED</text><text fill="#eeeeee" stroke="none" font-family="Arial" font-size="24px" font-style="normal" font-weight="normal" text-decoration="none" x="0" y="480">UNREGISTERED</text><text fill="#eeeeee" stroke="none" font-family="Arial" font-size="24px" font-style="normal" font-weight="normal" text-decoration="none" x="0" y="510">UNREGISTERED</text><text fill="#eeeeee" stroke="none" font-family="Arial" font-size="24px" font-style="normal" font-weight="normal" text-decoration="none" x="0" y="540">UNREGISTERED</text><text fill="#eeeeee" stroke="none" font-family="Arial" font-size="24px" font-style="normal" font-weight="normal" text-decoration="none" x="0" y="570">UNREGISTERED</text><text fill="#eeeeee" stroke="none" font-family="Arial" font-size="24px" font-style="normal" font-weight="normal" text-decoration="none" x="0" y="600">UNREGISTERED</text><text fill="#eeeeee" stroke="none" font-family="Arial" font-size="24px" font-style="normal" font-weight="normal" text-decoration="none" x="200" y="0">UNREGISTERED</text><text fill="#eeeeee" stroke="none" font-family="Arial" font-size="24px" font-style="normal" font-weight="normal" text-decoration="none" x="200" y="30">UNREGISTERED</text><text fill="#eeeeee" stroke="none" font-family="Arial" font-size="24px" font-style="normal" font-weight="normal" text-decoration="none" x="200" y="60">UNREGISTERED</text><text fill="#eeeeee" stroke="none" font-family="Arial" font-size="24px" font-style="normal" font-weight="normal" text-decoration="none" x="200" y="90">UNREGISTERED</text><text fill="#eeeeee" stroke="none" font-family="Arial" font-size="24px" font-style="normal" font-weight="normal" text-decoration="none" x="200" y="120">UNREGISTERED</text><text fill="#eeeeee" stroke="none" font-family="Arial" font-size="24px" font-style="normal" font-weight="normal" text-decoration="none" x="200" y="150">UNREGISTERED</text><text fill="#eeeeee" stroke="none" font-family="Arial" font-size="24px" font-style="normal" font-weight="normal" text-decoration="none" x="200" y="180">UNREGISTERED</text><text fill="#eeeeee" stroke="none" font-family="Arial" font-size="24px" font-style="normal" font-weight="normal" text-decoration="none" x="200" y="210">UNREGISTERED</text><text fill="#eeeeee" stroke="none" font-family="Arial" font-size="24px" font-style="normal" font-weight="normal" text-decoration="none" x="200" y="240">UNREGISTERED</text><text fill="#eeeeee" stroke="none" font-family="Arial" font-size="24px" font-style="normal" font-weight="normal" text-decoration="none" x="200" y="270">UNREGISTERED</text><text fill="#eeeeee" stroke="none" font-family="Arial" font-size="24px" font-style="normal" font-weight="normal" text-decoration="none" x="200" y="300">UNREGISTERED</text><text fill="#eeeeee" stroke="none" font-family="Arial" font-size="24px" font-style="normal" font-weight="normal" text-decoration="none" x="200" y="330">UNREGISTERED</text><text fill="#eeeeee" stroke="none" font-family="Arial" font-size="24px" font-style="normal" font-weight="normal" text-decoration="none" x="200" y="360">UNREGISTERED</text><text fill="#eeeeee" stroke="none" font-family="Arial" font-size="24px" font-style="normal" font-weight="normal" text-decoration="none" x="200" y="390">UNREGISTERED</text><text fill="#eeeeee" stroke="none" font-family="Arial" font-size="24px" font-style="normal" font-weight="normal" text-decoration="none" x="200" y="420">UNREGISTERED</text><text fill="#eeeeee" stroke="none" font-family="Arial" font-size="24px" font-style="normal" font-weight="normal" text-decoration="none" x="200" y="450">UNREGISTERED</text><text fill="#eeeeee" stroke="none" font-family="Arial" font-size="24px" font-style="normal" font-weight="normal" text-decoration="none" x="200" y="480">UNREGISTERED</text><text fill="#eeeeee" stroke="none" font-family="Arial" font-size="24px" font-style="normal" font-weight="normal" text-decoration="none" x="200" y="510">UNREGISTERED</text><text fill="#eeeeee" stroke="none" font-family="Arial" font-size="24px" font-style="normal" font-weight="normal" text-decoration="none" x="200" y="540">UNREGISTERED</text><text fill="#eeeeee" stroke="none" font-family="Arial" font-size="24px" font-style="normal" font-weight="normal" text-decoration="none" x="200" y="570">UNREGISTERED</text><text fill="#eeeeee" stroke="none" font-family="Arial" font-size="24px" font-style="normal" font-weight="normal" text-decoration="none" x="200" y="600">UNREGISTERED</text><text fill="#eeeeee" stroke="none" font-family="Arial" font-size="24px" font-style="normal" font-weight="normal" text-decoration="none" x="400" y="0">UNREGISTERED</text><text fill="#eeeeee" stroke="none" font-family="Arial" font-size="24px" font-style="normal" font-weight="normal" text-decoration="none" x="400" y="30">UNREGISTERED</text><text fill="#eeeeee" stroke="none" font-family="Arial" font-size="24px" font-style="normal" font-weight="normal" text-decoration="none" x="400" y="60">UNREGISTERED</text><text fill="#eeeeee" stroke="none" font-family="Arial" font-size="24px" font-style="normal" font-weight="normal" text-decoration="none" x="400" y="90">UNREGISTERED</text><text fill="#eeeeee" stroke="none" font-family="Arial" font-size="24px" font-style="normal" font-weight="normal" text-decoration="none" x="400" y="120">UNREGISTERED</text><text fill="#eeeeee" stroke="none" font-family="Arial" font-size="24px" font-style="normal" font-weight="normal" text-decoration="none" x="400" y="150">UNREGISTERED</text><text fill="#eeeeee" stroke="none" font-family="Arial" font-size="24px" font-style="normal" font-weight="normal" text-decoration="none" x="400" y="180">UNREGISTERED</text><text fill="#eeeeee" stroke="none" font-family="Arial" font-size="24px" font-style="normal" font-weight="normal" text-decoration="none" x="400" y="210">UNREGISTERED</text><text fill="#eeeeee" stroke="none" font-family="Arial" font-size="24px" font-style="normal" font-weight="normal" text-decoration="none" x="400" y="240">UNREGISTERED</text><text fill="#eeeeee" stroke="none" font-family="Arial" font-size="24px" font-style="normal" font-weight="normal" text-decoration="none" x="400" y="270">UNREGISTERED</text><text fill="#eeeeee" stroke="none" font-family="Arial" font-size="24px" font-style="normal" font-weight="normal" text-decoration="none" x="400" y="300">UNREGISTERED</text><text fill="#eeeeee" stroke="none" font-family="Arial" font-size="24px" font-style="normal" font-weight="normal" text-decoration="none" x="400" y="330">UNREGISTERED</text><text fill="#eeeeee" stroke="none" font-family="Arial" font-size="24px" font-style="normal" font-weight="normal" text-decoration="none" x="400" y="360">UNREGISTERED</text><text fill="#eeeeee" stroke="none" font-family="Arial" font-size="24px" font-style="normal" font-weight="normal" text-decoration="none" x="400" y="390">UNREGISTERED</text><text fill="#eeeeee" stroke="none" font-family="Arial" font-size="24px" font-style="normal" font-weight="normal" text-decoration="none" x="400" y="420">UNREGISTERED</text><text fill="#eeeeee" stroke="none" font-family="Arial" font-size="24px" font-style="normal" font-weight="normal" text-decoration="none" x="400" y="450">UNREGISTERED</text><text fill="#eeeeee" stroke="none" font-family="Arial" font-size="24px" font-style="normal" font-weight="normal" text-decoration="none" x="400" y="480">UNREGISTERED</text><text fill="#eeeeee" stroke="none" font-family="Arial" font-size="24px" font-style="normal" font-weight="normal" text-decoration="none" x="400" y="510">UNREGISTERED</text><text fill="#eeeeee" stroke="none" font-family="Arial" font-size="24px" font-style="normal" font-weight="normal" text-decoration="none" x="400" y="540">UNREGISTERED</text><text fill="#eeeeee" stroke="none" font-family="Arial" font-size="24px" font-style="normal" font-weight="normal" text-decoration="none" x="400" y="570">UNREGISTERED</text><text fill="#eeeeee" stroke="none" font-family="Arial" font-size="24px" font-style="normal" font-weight="normal" text-decoration="none" x="400" y="600">UNREGISTERED</text><g transform="translate(-366,-270) scale(1,1)"><rect fill="#C0C0C0" stroke="none" x="391" y="287" width="280" height="224" opacity="0.2"/></g><g transform="translate(-366,-270) scale(1,1)"><rect fill="#ffffff" stroke="none" x="384" y="280" width="280" height="224"/></g><g transform="translate(-366,-270) scale(1,1)"><path fill="none" stroke="#000000" d="M 384 280 L 664 280 L 664 504 L 384 504 L 384 280 Z Z" stroke-miterlimit="10"/></g><g transform="translate(-366,-270) scale(1,1)"><path fill="none" stroke="#000000" d="M 384 305 L 664 305" stroke-miterlimit="10"/></g><g transform="translate(-366,-270) scale(1,1)"><path fill="none" stroke="#000000" d="M 384 315 L 664 315" stroke-miterlimit="10"/></g><g transform="translate(-366,-270) scale(1,1)"><g><path fill="none" stroke="none"/><text fill="#000000" stroke="none" font-family="Arial" font-size="13px" font-style="normal" font-weight="bold" text-decoration="none" x="498.34912109375" y="298">Sampler</text></g></g><g transform="translate(-366,-270) scale(1,1)"><rect fill="#C0C0C0" stroke="none" x="439" y="631" width="85.57177734375" height="44" opacity="0.2"/></g><g transform="translate(-366,-270) scale(1,1)"><rect fill="#ffffff" stroke="none" x="432" y="624" width="85.57177734375" height="44"/></g><g transform="translate(-366,-270) scale(1,1)"><path fill="none" stroke="#000000" d="M 432 624 L 517.57177734375 624 L 517.57177734375 668 L 432 668 L 432 624 Z Z" stroke-miterlimit="10"/></g><g transform="translate(-366,-270) scale(1,1)"><path fill="none" stroke="#000000" d="M 432 649 L 517.57177734375 649" stroke-miterlimit="10"/></g><g transform="translate(-366,-270) scale(1,1)"><path fill="none" stroke="#000000" d="M 432 659 L 517.57177734375 659" stroke-miterlimit="10"/></g><g transform="translate(-366,-270) scale(1,1)"><g><path fill="none" stroke="none"/><text fill="#000000" stroke="none" font-family="Arial" font-size="13px" font-style="normal" font-weight="bold" text-decoration="none" x="436.5" y="642">UnitSampler</text></g></g><g transform="translate(-366,-270) scale(1,1)"><rect fill="#C0C0C0" stroke="none" x="847" y="391" width="50.919921875" height="44" opacity="0.2"/></g><g transform="translate(-366,-270) scale(1,1)"><rect fill="#ffffff" stroke="none" x="840" y="384" width="50.919921875" height="44"/></g><g transform="translate(-366,-270) scale(1,1)"><path fill="none" stroke="#000000" d="M 840 384 L 890.919921875 384 L 890.919921875 428 L 840 428 L 840 384 Z Z" stroke-miterlimit="10"/></g><g transform="translate(-366,-270) scale(1,1)"><path fill="none" stroke="#000000" d="M 840 409 L 890.919921875 409" stroke-miterlimit="10"/></g><g transform="translate(-366,-270) scale(1,1)"><path fill="none" stroke="#000000" d="M 840 419 L 890.919921875 419" stroke-miterlimit="10"/></g><g transform="translate(-366,-270) scale(1,1)"><g><path fill="none" stroke="none"/><text fill="#000000" stroke="none" font-family="Arial" font-size="13px" font-style="normal" font-weight="bold" text-decoration="none" x="846.3154296875" y="402">Matrix</text></g></g><g transform="translate(-366,-270) scale(1,1)"><rect fill="#C0C0C0" stroke="none" x="639" y="639" width="103.630859375" height="44" opacity="0.2"/></g><g transform="translate(-366,-270) scale(1,1)"><rect fill="#ffffff" stroke="none" x="632" y="632" width="103.630859375" height="44"/></g><g transform="translate(-366,-270) scale(1,1)"><path fill="none" stroke="#000000" d="M 632 632 L 735.630859375 632 L 735.630859375 676 L 632 676 L 632 632 Z Z" stroke-miterlimit="10"/></g><g transform="translate(-366,-270) scale(1,1)"><path fill="none" stroke="#000000" d="M 632 657 L 735.630859375 657" stroke-miterlimit="10"/></g><g transform="translate(-366,-270) scale(1,1)"><path fill="none" stroke="#000000" d="M 632 667 L 735.630859375 667" stroke-miterlimit="10"/></g><g transform="translate(-366,-270) scale(1,1)"><g><path fill="none" stroke="none"/><text fill="#000000" stroke="none" font-family="Arial" font-size="13px" font-style="normal" font-weight="bold" text-decoration="none" x="636.5" y="650">SampleContext</text></g></g><g transform="translate(-366,-270) scale(1,1)"><rect fill="#C0C0C0" stroke="none" x="455" y="743" width="107.26171875" height="44" opacity="0.2"/></g><g transform="translate(-366,-270) scale(1,1)"><rect fill="#ffffff" stroke="none" x="448" y="736" width="107.26171875" height="44"/></g><g transform="translate(-366,-270) scale(1,1)"><path fill="none" stroke="#000000" d="M 448 736 L 555.26171875 736 L 555.26171875 780 L 448 780 L 448 736 Z Z" stroke-miterlimit="10"/></g><g transform="translate(-366,-270) scale(1,1)"><path fill="none" stroke="#000000" d="M 448 761 L 555.26171875 761" stroke-miterlimit="10"/></g><g transform="translate(-366,-270) scale(1,1)"><path fill="none" stroke="#000000" d="M 448 771 L 555.26171875 771" stroke-miterlimit="10"/></g><g transform="translate(-366,-270) scale(1,1)"><g><path fill="none" stroke="none"/><text fill="#000000" stroke="none" font-family="Arial" font-size="13px" font-style="normal" font-weight="bold" text-decoration="none" x="452.5" y="754">SampleStrategy</text></g></g><g transform="translate(-366,-270) scale(1,1)"><rect fill="#C0C0C0" stroke="none" x="383" y="831" width="59.82568359375" height="44" opacity="0.2"/></g><g transform="translate(-366,-270) scale(1,1)"><rect fill="#ffffff" stroke="none" x="376" y="824" width="59.82568359375" height="44"/></g><g transform="translate(-366,-270) scale(1,1)"><path fill="none" stroke="#000000" d="M 376 824 L 435.82568359375 824 L 435.82568359375 868 L 376 868 L 376 824 Z Z" stroke-miterlimit="10"/></g><g transform="translate(-366,-270) scale(1,1)"><path fill="none" stroke="#000000" d="M 376 849 L 435.82568359375 849" stroke-miterlimit="10"/></g><g transform="translate(-366,-270) scale(1,1)"><path fill="none" stroke="#000000" d="M 376 859 L 435.82568359375 859" stroke-miterlimit="10"/></g><g transform="translate(-366,-270) scale(1,1)"><g><path fill="none" stroke="none"/><text fill="#000000" stroke="none" font-family="Arial" font-size="13px" font-style="normal" font-weight="bold" text-decoration="none" x="380.5" y="842">Average</text></g></g><g transform="translate(-366,-270) scale(1,1)"><rect fill="#C0C0C0" stroke="none" x="479" y="831" width="55.35693359375" height="44" opacity="0.2"/></g><g transform="translate(-366,-270) scale(1,1)"><rect fill="#ffffff" stroke="none" x="472" y="824" width="55.35693359375" height="44"/></g><g transform="translate(-366,-270) scale(1,1)"><path fill="none" stroke="#000000" d="M 472 824 L 527.35693359375 824 L 527.35693359375 868 L 472 868 L 472 824 Z Z" stroke-miterlimit="10"/></g><g transform="translate(-366,-270) scale(1,1)"><path fill="none" stroke="#000000" d="M 472 849 L 527.35693359375 849" stroke-miterlimit="10"/></g><g transform="translate(-366,-270) scale(1,1)"><path fill="none" stroke="#000000" d="M 472 859 L 527.35693359375 859" stroke-miterlimit="10"/></g><g transform="translate(-366,-270) scale(1,1)"><g><path fill="none" stroke="none"/><text fill="#000000" stroke="none" font-family="Arial" font-size="13px" font-style="normal" font-weight="bold" text-decoration="none" x="477.287109375" y="842">Median</text></g></g><g transform="translate(-366,-270) scale(1,1)"><rect fill="#C0C0C0" stroke="none" x="559" y="831" width="50.919921875" height="44" opacity="0.2"/></g><g transform="translate(-366,-270) scale(1,1)"><rect fill="#ffffff" stroke="none" x="552" y="824" width="50.919921875" height="44"/></g><g transform="translate(-366,-270) scale(1,1)"><path fill="none" stroke="#000000" d="M 552 824 L 602.919921875 824 L 602.919921875 868 L 552 868 L 552 824 Z Z" stroke-miterlimit="10"/></g><g transform="translate(-366,-270) scale(1,1)"><path fill="none" stroke="#000000" d="M 552 849 L 602.919921875 849" stroke-miterlimit="10"/></g><g transform="translate(-366,-270) scale(1,1)"><path fill="none" stroke="#000000" d="M 552 859 L 602.919921875 859" stroke-miterlimit="10"/></g><g transform="translate(-366,-270) scale(1,1)"><g><path fill="none" stroke="none"/><text fill="#000000" stroke="none" font-family="Arial" font-size="13px" font-style="normal" font-weight="bold" text-decoration="none" x="560.489501953125" y="842">Mode</text></g></g></g></svg>